<svg width="18" height="14" viewBox="0 0 18 14" fill="none" xmlns="http://www.w3.org/2000/svg">
<path d="M-2.90966e-07 7C-2.66838e-07 7.552 0.448 8 1 8L14.0703 8L10.207 11.8633C9.81603 12.2543 9.81603 12.8873 10.207 13.2773L10.293 13.3633C10.684 13.7543 11.317 13.7543 11.707 13.3633L17.3633 7.70703C17.7543 7.31603 17.7543 6.68297 17.3633 6.29297L11.707 0.636719C11.316 0.245719 10.683 0.245719 10.293 0.636719L10.207 0.722657C9.81603 1.11366 9.81603 1.74672 10.207 2.13672L14.0703 6L1 6C0.448 6 -3.15095e-07 6.448 -2.90966e-07 7Z" fill="white"/>
</svg>
