<svg width="120" height="120" viewBox="0 0 120 120" fill="none" xmlns="http://www.w3.org/2000/svg">
    <ellipse cx="58.8235" cy="60" rx="58.8235" ry="60" fill="#5F9DD8"/>
    <path d="M120 59.904C120 26.8199 93.1371 1.27676e-05 60 9.6945e-06L60 119.808C93.1371 119.808 120 92.9881 120 59.904Z" fill="#B0CEEC"/>
    <path d="M120 59.904C120 26.8199 93.1371 1.27676e-05 60 9.6945e-06L60 119.808C93.1371 119.808 120 92.9881 120 59.904Z" stroke="#DFEBF7"/>
    <path id="heart"
          d="M58.2159 91.0998L58.2159 91.0998C58.6835 91.4726 59.3466 91.776 60.1437 91.776C60.9408 91.776 61.6039 91.4726 62.0715 91.0998L62.0715 91.0998C64.2989 89.3237 69.9186 84.7372 75.8534 79.0632C81.7313 73.4435 88.15 66.5411 91.7765 60.1355C91.7945 60.1039 91.8104 60.075 91.8201 60.0571C93.5733 56.9131 94.4889 53.321 94.4889 49.6653C94.4889 38.726 86.2431 29.4 75.5931 29.4C69.3238 29.4 63.622 32.7008 60.1445 37.9891C56.667 32.7008 50.9652 29.4 44.6959 29.4C34.0449 29.4 25.8 38.7271 25.8 49.6653C25.8 53.3064 26.7077 56.8852 28.4489 60.0213C28.4741 60.0693 28.496 60.1086 28.512 60.1366C32.1387 66.542 38.5567 73.4438 44.434 79.063C50.3688 84.7372 55.9885 89.3237 58.2159 91.0998ZM61.3583 40.0972L61.3575 40.0955L61.3583 40.0972Z"
          stroke="white" stroke-width="6"/>
</svg>
