<svg width="128" height="40" viewBox="0 0 128 40" fill="none" xmlns="http://www.w3.org/2000/svg">
<g clip-path="url(#clip0_502:4)">
<rect width="128" height="40" fill="white"/>
<path d="M3.80788 37V33.7379H1.67662V37H0.980693V33.0854H4.5038V37H3.80788ZM8.44276 37V33.7814H7.06831L7.02482 34.4425C6.99002 34.8774 6.93783 35.2544 6.86824 35.5734C6.79864 35.8865 6.71745 36.1388 6.62466 36.3302C6.53767 36.5158 6.43039 36.6636 6.3028 36.7738C6.17521 36.884 6.04473 36.9594 5.91134 37C5.77796 37.0348 5.62428 37.0522 5.45029 37.0522L5.3981 36.3737C5.46769 36.3795 5.53439 36.3708 5.59818 36.3476C5.66777 36.3186 5.74316 36.2606 5.82435 36.1736C5.91134 36.0866 5.98674 35.9706 6.05053 35.8256C6.12012 35.6806 6.18101 35.4777 6.23321 35.2167C6.2912 34.9499 6.3289 34.6455 6.3463 34.3033L6.41589 33.0854H9.13868V37H8.44276ZM10.6021 33.9118L10.4194 33.3551C10.8022 33.1173 11.2371 32.9984 11.7243 32.9984C12.2636 32.9984 12.6493 33.1318 12.8812 33.3986C13.1132 33.6654 13.2292 34.0655 13.2292 34.5991V37H12.5681V36.4955C12.2665 36.8724 11.849 37.0609 11.3154 37.0609C10.9559 37.0609 10.6659 36.9536 10.4455 36.739C10.2251 36.5187 10.1149 36.2229 10.1149 35.8517C10.1149 35.4632 10.2512 35.1587 10.5238 34.9383C10.8022 34.718 11.1588 34.6078 11.5938 34.6078C12.0113 34.6078 12.3361 34.6919 12.5681 34.86C12.5681 34.4425 12.5101 34.1322 12.3941 33.9292C12.2781 33.7263 12.0403 33.6248 11.6808 33.6248C11.327 33.6248 10.9675 33.7205 10.6021 33.9118ZM11.559 36.4346C11.9475 36.4346 12.2839 36.2664 12.5681 35.93V35.4342C12.3245 35.2602 12.0316 35.1732 11.6895 35.1732C11.4575 35.1732 11.2603 35.2283 11.0979 35.3385C10.9356 35.4487 10.8544 35.6082 10.8544 35.8169C10.8544 36.0083 10.9153 36.1591 11.037 36.2693C11.1646 36.3795 11.3386 36.4346 11.559 36.4346ZM13.8987 33.7814V33.0854H17.4653V33.7814H16.0299V37H15.334V33.7814H13.8987ZM20.0557 38.7398V37.087H19.96C19.3047 37.087 18.7856 36.8956 18.4029 36.5129C18.0259 36.1301 17.8374 35.6401 17.8374 35.0427C17.8374 34.4802 18.0288 33.9988 18.4116 33.5987C18.7943 33.1985 19.3076 32.9984 19.9513 32.9984H20.0557V30.9107H20.7516V32.9984H20.8647C21.5026 32.9984 22.013 33.1927 22.3957 33.5813C22.7785 33.9698 22.9699 34.457 22.9699 35.0427C22.9699 35.6459 22.7843 36.1388 22.4131 36.5216C22.0478 36.8985 21.5316 37.087 20.8647 37.087H20.7516V38.7398H20.0557ZM18.5769 35.0427C18.5769 35.4603 18.7015 35.7966 18.9509 36.0518C19.2003 36.307 19.5454 36.4346 19.9861 36.4346H20.0557V33.6509H19.9426C19.5135 33.6509 19.1771 33.7843 18.9335 34.051C18.6957 34.312 18.5769 34.6426 18.5769 35.0427ZM20.8647 33.6509H20.7516V36.4346H20.8299C21.2765 36.4346 21.6215 36.307 21.8651 36.0518C22.1087 35.7966 22.2305 35.4603 22.2305 35.0427C22.2305 34.66 22.1087 34.3323 21.8651 34.0597C21.6215 33.7872 21.2881 33.6509 20.8647 33.6509ZM24.2817 36.5129C23.899 36.1243 23.7076 35.6343 23.7076 35.0427C23.7076 34.4512 23.899 33.964 24.2817 33.5813C24.6703 33.1927 25.1748 32.9984 25.7954 32.9984C26.4159 32.9984 26.9175 33.1927 27.3003 33.5813C27.6888 33.964 27.8831 34.4512 27.8831 35.0427C27.8831 35.6343 27.6888 36.1243 27.3003 36.5129C26.9175 36.8956 26.4159 37.087 25.7954 37.087C25.1748 37.087 24.6703 36.8956 24.2817 36.5129ZM24.447 35.0427C24.447 35.4487 24.5717 35.7821 24.8211 36.0431C25.0762 36.3041 25.401 36.4346 25.7954 36.4346C26.1897 36.4346 26.5116 36.307 26.7609 36.0518C27.0161 35.7908 27.1437 35.4545 27.1437 35.0427C27.1437 34.6368 27.0161 34.3033 26.7609 34.0423C26.5116 33.7814 26.1897 33.6509 25.7954 33.6509C25.4068 33.6509 25.0849 33.7814 24.8298 34.0423C24.5746 34.2975 24.447 34.631 24.447 35.0427ZM28.8872 38.7398V33.0854H29.5832V33.5465C29.7224 33.3841 29.9108 33.2536 30.1486 33.155C30.3922 33.0506 30.6474 32.9984 30.9141 32.9984C31.4651 32.9984 31.9029 33.184 32.2277 33.5552C32.5582 33.9205 32.7235 34.3961 32.7235 34.9818C32.7235 35.585 32.535 36.0866 32.1581 36.4868C31.7811 36.8869 31.2911 37.087 30.6879 37.087C30.224 37.087 29.8557 36.9971 29.5832 36.8173V38.7398H28.8872ZM30.714 33.6509C30.2501 33.6509 29.8731 33.8307 29.5832 34.1902V36.1301C29.8847 36.3331 30.2327 36.4346 30.6271 36.4346C31.0388 36.4346 31.3665 36.3012 31.61 36.0344C31.8594 35.7676 31.9841 35.4255 31.9841 35.0079C31.9841 34.602 31.871 34.2743 31.6448 34.0249C31.4187 33.7756 31.1084 33.6509 30.714 33.6509ZM33.721 37V33.0854H34.356L35.8609 35.0253L37.2876 33.0854H37.9052V37H37.2093V34.1467L35.8523 35.9648H35.8262L34.4169 34.1467V37H33.721ZM39.3752 33.9118L39.1925 33.3551C39.5752 33.1173 40.0102 32.9984 40.4973 32.9984C41.0367 32.9984 41.4223 33.1318 41.6543 33.3986C41.8863 33.6654 42.0023 34.0655 42.0023 34.5991V37H41.3411V36.4955C41.0396 36.8724 40.622 37.0609 40.0885 37.0609C39.7289 37.0609 39.4389 36.9536 39.2186 36.739C38.9982 36.5187 38.888 36.2229 38.888 35.8517C38.888 35.4632 39.0243 35.1587 39.2969 34.9383C39.5752 34.718 39.9319 34.6078 40.3668 34.6078C40.7844 34.6078 41.1092 34.6919 41.3411 34.86C41.3411 34.4425 41.2831 34.1322 41.1672 33.9292C41.0512 33.7263 40.8134 33.6248 40.4538 33.6248C40.1001 33.6248 39.7405 33.7205 39.3752 33.9118ZM40.332 36.4346C40.7206 36.4346 41.057 36.2664 41.3411 35.93V35.4342C41.0976 35.2602 40.8047 35.1732 40.4625 35.1732C40.2306 35.1732 40.0334 35.2283 39.871 35.3385C39.7086 35.4487 39.6274 35.6082 39.6274 35.8169C39.6274 36.0083 39.6883 36.1591 39.8101 36.2693C39.9377 36.3795 40.1117 36.4346 40.332 36.4346ZM48.1487 30.8237L48.5228 31.3717C48.3836 31.5631 48.2154 31.6936 48.0183 31.7632C47.8211 31.8328 47.5775 31.8908 47.2875 31.9372C46.9976 31.9836 46.7453 32.0561 46.5307 32.1546C45.9392 32.4214 45.6086 33.0506 45.539 34.0423H45.5564C45.684 33.7698 45.8899 33.5494 46.1741 33.3812C46.464 33.213 46.7743 33.1289 47.1049 33.1289C47.6616 33.1289 48.1023 33.3058 48.4271 33.6596C48.7577 34.0133 48.923 34.486 48.923 35.0775C48.923 35.6343 48.7345 36.1098 48.3575 36.5042C47.9806 36.8927 47.4992 37.087 46.9135 37.087C46.2755 37.087 45.771 36.8695 45.3998 36.4346C45.0287 35.9996 44.8431 35.4052 44.8431 34.6513C44.8431 32.9521 45.3274 31.8995 46.2958 31.4935C46.5336 31.3891 46.7888 31.3166 47.0614 31.276C47.3339 31.2296 47.5543 31.1803 47.7225 31.1282C47.8907 31.076 48.0327 30.9745 48.1487 30.8237ZM45.5825 34.7817C45.5825 35.2805 45.7043 35.6806 45.9479 35.9822C46.1915 36.2838 46.5075 36.4346 46.8961 36.4346C47.273 36.4346 47.5804 36.307 47.8182 36.0518C48.0617 35.7966 48.1835 35.4835 48.1835 35.1123C48.1835 34.718 48.0733 34.399 47.853 34.1554C47.6326 33.906 47.3252 33.7814 46.9309 33.7814C46.5829 33.7814 46.2871 33.8799 46.0436 34.0771C45.8 34.2743 45.6463 34.5092 45.5825 34.7817ZM52.4476 37V33.7814H51.0732L51.0297 34.4425C50.9949 34.8774 50.9427 35.2544 50.8731 35.5734C50.8035 35.8865 50.7223 36.1388 50.6295 36.3302C50.5425 36.5158 50.4352 36.6636 50.3077 36.7738C50.1801 36.884 50.0496 36.9594 49.9162 37C49.7828 37.0348 49.6291 37.0522 49.4552 37.0522L49.403 36.3737C49.4726 36.3795 49.5392 36.3708 49.603 36.3476C49.6726 36.3186 49.748 36.2606 49.8292 36.1736C49.9162 36.0866 49.9916 35.9706 50.0554 35.8256C50.125 35.6806 50.1859 35.4777 50.2381 35.2167C50.2961 34.9499 50.3338 34.6455 50.3512 34.3033L50.4207 33.0854H53.1435V37H52.4476ZM54.6069 33.9118L54.4243 33.3551C54.807 33.1173 55.242 32.9984 55.7291 32.9984C56.2685 32.9984 56.6541 33.1318 56.8861 33.3986C57.1181 33.6654 57.2341 34.0655 57.2341 34.5991V37H56.5729V36.4955C56.2714 36.8724 55.8538 37.0609 55.3203 37.0609C54.9607 37.0609 54.6707 36.9536 54.4504 36.739C54.23 36.5187 54.1198 36.2229 54.1198 35.8517C54.1198 35.4632 54.2561 35.1587 54.5287 34.9383C54.807 34.718 55.1637 34.6078 55.5986 34.6078C56.0162 34.6078 56.341 34.6919 56.5729 34.86C56.5729 34.4425 56.5149 34.1322 56.399 33.9292C56.283 33.7263 56.0452 33.6248 55.6856 33.6248C55.3319 33.6248 54.9723 33.7205 54.6069 33.9118ZM55.5638 36.4346C55.9524 36.4346 56.2888 36.2664 56.5729 35.93V35.4342C56.3294 35.2602 56.0365 35.1732 55.6943 35.1732C55.4624 35.1732 55.2652 35.2283 55.1028 35.3385C54.9404 35.4487 54.8592 35.6082 54.8592 35.8169C54.8592 36.0083 54.9201 36.1591 55.0419 36.2693C55.1695 36.3795 55.3435 36.4346 55.5638 36.4346ZM58.3994 37V33.0854H60.8786V33.7379H59.0953V37H58.3994ZM61.7368 36.5129C61.3541 36.1243 61.1627 35.6343 61.1627 35.0427C61.1627 34.4512 61.3541 33.964 61.7368 33.5813C62.1254 33.1927 62.6299 32.9984 63.2505 32.9984C63.871 32.9984 64.3726 33.1927 64.7554 33.5813C65.1439 33.964 65.3382 34.4512 65.3382 35.0427C65.3382 35.6343 65.1439 36.1243 64.7554 36.5129C64.3726 36.8956 63.871 37.087 63.2505 37.087C62.6299 37.087 62.1254 36.8956 61.7368 36.5129ZM61.9021 35.0427C61.9021 35.4487 62.0268 35.7821 62.2762 36.0431C62.5313 36.3041 62.8561 36.4346 63.2505 36.4346C63.6448 36.4346 63.9667 36.307 64.216 36.0518C64.4712 35.7908 64.5988 35.4545 64.5988 35.0427C64.5988 34.6368 64.4712 34.3033 64.216 34.0423C63.9667 33.7814 63.6448 33.6509 63.2505 33.6509C62.8619 33.6509 62.54 33.7814 62.2849 34.0423C62.0297 34.2975 61.9021 34.631 61.9021 35.0427ZM65.6936 33.7814V33.0854H69.2602V33.7814H67.8249V37H67.1289V33.7814H65.6936ZM70.0207 37V33.0854C70.1135 33.0854 70.3194 33.0796 70.6384 33.068C70.9631 33.0564 71.2299 33.0506 71.4387 33.0506C72.5638 33.0506 73.1263 33.387 73.1263 34.0597C73.1263 34.2917 73.0538 34.4918 72.9088 34.66C72.7638 34.8223 72.5754 34.9209 72.3434 34.9557V34.9731C72.9523 35.0833 73.2568 35.3907 73.2568 35.8952C73.2568 36.6549 72.6566 37.0348 71.4561 37.0348C71.2821 37.0348 71.0269 37.029 70.6906 37.0174C70.3542 37.0058 70.1309 37 70.0207 37ZM71.5518 35.2428H70.7167V36.4433C71.1342 36.4607 71.401 36.4694 71.517 36.4694C72.1839 36.4694 72.5174 36.2606 72.5174 35.843C72.5174 35.4429 72.1955 35.2428 71.5518 35.2428ZM71.4909 33.6161C71.3227 33.6161 71.0646 33.6248 70.7167 33.6422V34.8078H71.5953C71.833 34.8078 72.0244 34.7528 72.1694 34.6426C72.3144 34.5324 72.3869 34.3845 72.3869 34.1989C72.3869 33.8104 72.0882 33.6161 71.4909 33.6161ZM74.6325 36.5129C74.2497 36.1243 74.0583 35.6343 74.0583 35.0427C74.0583 34.4512 74.2497 33.964 74.6325 33.5813C75.021 33.1927 75.5256 32.9984 76.1461 32.9984C76.7666 32.9984 77.2683 33.1927 77.651 33.5813C78.0396 33.964 78.2339 34.4512 78.2339 35.0427C78.2339 35.6343 78.0396 36.1243 77.651 36.5129C77.2683 36.8956 76.7666 37.087 76.1461 37.087C75.5256 37.087 75.021 36.8956 74.6325 36.5129ZM74.7977 35.0427C74.7977 35.4487 74.9224 35.7821 75.1718 36.0431C75.427 36.3041 75.7517 36.4346 76.1461 36.4346C76.5404 36.4346 76.8623 36.307 77.1117 36.0518C77.3669 35.7908 77.4944 35.4545 77.4944 35.0427C77.4944 34.6368 77.3669 34.3033 77.1117 34.0423C76.8623 33.7814 76.5404 33.6509 76.1461 33.6509C75.7575 33.6509 75.4357 33.7814 75.1805 34.0423C74.9253 34.2975 74.7977 34.631 74.7977 35.0427ZM79.238 38.7398V33.0854H79.9339V33.5465C80.0731 33.3841 80.2616 33.2536 80.4993 33.155C80.7429 33.0506 80.9981 32.9984 81.2649 32.9984C81.8158 32.9984 82.2536 33.184 82.5784 33.5552C82.909 33.9205 83.0743 34.3961 83.0743 34.9818C83.0743 35.585 82.8858 36.0866 82.5088 36.4868C82.1319 36.8869 81.6418 37.087 81.0387 37.087C80.5747 37.087 80.2065 36.9971 79.9339 36.8173V38.7398H79.238ZM81.0648 33.6509C80.6008 33.6509 80.2239 33.8307 79.9339 34.1902V36.1301C80.2355 36.3331 80.5834 36.4346 80.9778 36.4346C81.3895 36.4346 81.7172 36.3012 81.9608 36.0344C82.2101 35.7676 82.3348 35.4255 82.3348 35.0079C82.3348 34.602 82.2217 34.2743 81.9956 34.0249C81.7694 33.7756 81.4591 33.6509 81.0648 33.6509ZM84.7676 37H84.0717V33.0854H84.7676V35.9996L87.0294 33.0854H87.7253V37H87.0294V34.0858L84.7676 37ZM88.4946 33.7814V33.0854H92.0612V33.7814H90.6258V37H89.9299V33.7814H88.4946ZM95.7824 36.0257L95.9999 36.5737C95.623 36.9159 95.1329 37.087 94.5298 37.087C93.8977 37.087 93.3902 36.9014 93.0075 36.5303C92.6247 36.1591 92.4333 35.6632 92.4333 35.0427C92.4333 34.4512 92.6131 33.964 92.9727 33.5813C93.3322 33.1927 93.8252 32.9984 94.4515 32.9984C94.9676 32.9984 95.3997 33.1666 95.7477 33.503C96.0956 33.8336 96.2696 34.2627 96.2696 34.7904C96.2696 34.9702 96.2551 35.1268 96.2261 35.2602H93.2162C93.2452 35.6256 93.3815 35.9126 93.6251 36.1214C93.8745 36.3302 94.1934 36.4346 94.582 36.4346C95.0923 36.4346 95.4925 36.2983 95.7824 36.0257ZM94.4167 33.6509C94.0687 33.6509 93.7846 33.7495 93.5642 33.9466C93.3438 34.138 93.2133 34.3874 93.1727 34.6948H95.5476C95.5302 34.37 95.42 34.1148 95.217 33.9292C95.0198 33.7437 94.7531 33.6509 94.4167 33.6509ZM99.7401 37V33.7814H98.3657L98.3222 34.4425C98.2874 34.8774 98.2352 35.2544 98.1656 35.5734C98.096 35.8865 98.0148 36.1388 97.922 36.3302C97.835 36.5158 97.7277 36.6636 97.6001 36.7738C97.4726 36.884 97.3421 36.9594 97.2087 37C97.0753 37.0348 96.9216 37.0522 96.7476 37.0522L96.6954 36.3737C96.765 36.3795 96.8317 36.3708 96.8955 36.3476C96.9651 36.3186 97.0405 36.2606 97.1217 36.1736C97.2087 36.0866 97.2841 35.9706 97.3479 35.8256C97.4175 35.6806 97.4784 35.4777 97.5305 35.2167C97.5885 34.9499 97.6262 34.6455 97.6436 34.3033L97.7132 33.0854H100.436V37H99.7401ZM101.691 37V33.0854H102.387V34.2598H103.1C103.657 34.2598 104.054 34.3874 104.292 34.6426C104.529 34.8919 104.648 35.2138 104.648 35.6082C104.648 36.0025 104.518 36.3331 104.257 36.5998C103.996 36.8666 103.581 37 103.013 37H101.691ZM102.969 34.9122H102.387V36.3476H102.961C103.593 36.3476 103.909 36.1098 103.909 35.6343C103.909 35.1529 103.596 34.9122 102.969 34.9122ZM108.452 37V35.3472H106.277V37H105.581V33.0854H106.277V34.6948H108.452V33.0854H109.148V37H108.452ZM110.72 36.5129C110.337 36.1243 110.146 35.6343 110.146 35.0427C110.146 34.4512 110.337 33.964 110.72 33.5813C111.108 33.1927 111.613 32.9984 112.233 32.9984C112.854 32.9984 113.356 33.1927 113.738 33.5813C114.127 33.964 114.321 34.4512 114.321 35.0427C114.321 35.6343 114.127 36.1243 113.738 36.5129C113.356 36.8956 112.854 37.087 112.233 37.087C111.613 37.087 111.108 36.8956 110.72 36.5129ZM110.885 35.0427C110.885 35.4487 111.01 35.7821 111.259 36.0431C111.514 36.3041 111.839 36.4346 112.233 36.4346C112.628 36.4346 112.95 36.307 113.199 36.0518C113.454 35.7908 113.582 35.4545 113.582 35.0427C113.582 34.6368 113.454 34.3033 113.199 34.0423C112.95 33.7814 112.628 33.6509 112.233 33.6509C111.845 33.6509 111.523 33.7814 111.268 34.0423C111.013 34.2975 110.885 34.631 110.885 35.0427ZM118.335 35.93L118.666 36.4346C118.503 36.6433 118.289 36.8057 118.022 36.9217C117.755 37.0319 117.468 37.087 117.161 37.087C116.535 37.087 116.027 36.9014 115.639 36.5303C115.256 36.1533 115.064 35.6574 115.064 35.0427C115.064 34.4686 115.253 33.9843 115.63 33.59C116.007 33.1956 116.479 32.9984 117.048 32.9984C117.732 32.9984 118.245 33.1695 118.588 33.5117L118.266 34.0597C117.97 33.7872 117.596 33.6509 117.143 33.6509C116.778 33.6509 116.462 33.7843 116.195 34.051C115.934 34.312 115.804 34.6426 115.804 35.0427C115.804 35.4603 115.937 35.7966 116.204 36.0518C116.477 36.307 116.813 36.4346 117.213 36.4346C117.665 36.4346 118.039 36.2664 118.335 35.93ZM119.026 33.7814V33.0854H122.593V33.7814H121.157V37H120.461V33.7814H119.026ZM124.049 37H123.353V33.0854H124.049V35.9996L126.311 33.0854H127.007V37H126.311V34.0858L124.049 37Z" fill="#0F75BD"/>
<path fill-rule="evenodd" clip-rule="evenodd" d="M24.1263 12.1811L23.0566 6.83288L26.9786 5.76325L26.5032 4.33706L22.2247 1.72239L17.7084 4.21821L15.3315 1.247L15.2126 1.0093L0.831941 -0.298035L0.356546 0.652754L10.8152 11.2303L0 24.1848L0.356546 25.1356L7.72516 26.0864L9.74559 19.312L24.1263 12.1811ZM121.344 6.95173C119.562 6.95173 117.898 7.66482 116.591 8.85331C115.283 10.1606 114.689 11.8245 114.689 13.6073C114.689 15.39 115.402 17.1727 116.709 18.3612C117.898 19.6685 119.562 20.3816 121.226 20.3816C121.226 20.3816 121.226 20.3816 121.344 20.3816H121.463C123.127 20.3816 124.791 19.6685 125.98 18.3612C127.287 17.0539 128 15.39 128 13.6073C128 9.92295 125.029 6.95173 121.344 6.95173ZM126.455 13.6073C126.455 16.6973 124.197 18.9554 121.344 18.9554C118.492 18.9554 116.234 16.5785 116.234 13.6073C116.234 10.636 118.373 8.37792 121.344 8.37792C124.197 8.37792 126.455 10.636 126.455 13.6073ZM105.419 20.0251H106.845V8.49676H113.619V7.18943H105.419V20.0251ZM95.9109 6.95173C93.8904 6.95173 92.3454 7.90252 91.0381 9.68525L91.9888 10.5172L92.1077 10.3983C93.1773 8.97216 94.3658 8.37792 95.9109 8.37792C98.0501 8.37792 99.3575 9.68525 99.3575 11.9434V13.3696H94.9601C92.2265 13.3696 90.4438 14.6769 90.4438 16.8162C90.4438 18.0047 90.9192 18.8366 91.7511 19.4308C92.5831 20.0251 93.6527 20.3816 94.8412 20.3816C96.8617 20.3816 98.4067 19.5497 99.3575 18.2424V20.0251H100.784V12.0622C100.784 8.85331 99.0009 6.95173 95.9109 6.95173ZM99.3575 14.558V15.2711C99.3575 17.4104 97.4559 19.0743 95.0789 19.0743C93.5339 19.0743 91.9888 18.3612 91.9888 16.6973C91.9888 15.39 93.0585 14.6769 95.0789 14.6769H99.3575V14.558ZM78.6778 10.3983C78.4401 15.9842 77.9647 18.7177 76.0631 18.8366C75.8254 18.8366 75.7066 18.8366 75.5877 18.8366H75.4689V20.0251H75.5877C75.7066 20.1439 75.9443 20.1439 76.0631 20.1439C78.7967 20.0251 79.6286 17.8858 79.9851 10.3983L80.104 8.49676H85.3333V20.0251H86.8784V7.18943H78.7967L78.6778 10.3983ZM68.5757 10.0418H64.1783V3.98052H72.7354V2.55433H62.7521V20.0251H68.5757C71.9034 20.0251 74.1616 18.0047 74.1616 15.0334C74.1616 12.0622 71.9034 10.0418 68.5757 10.0418ZM64.1783 18.7177V11.3491H68.4568C71.0715 11.3491 72.6165 12.7753 72.6165 15.0334C72.6165 17.2916 71.0715 18.7177 68.5757 18.7177H64.1783ZM52.1746 6.95173C50.3918 6.95173 48.728 7.66482 47.4206 8.85331C46.1133 10.1606 45.519 11.8245 45.519 13.6073C45.519 15.39 46.2321 17.1727 47.4206 18.3612C48.728 19.6685 50.3918 20.3816 52.0557 20.3816C52.0557 20.3816 52.0557 20.3816 52.1746 20.3816C53.8384 20.3816 55.6212 19.6685 56.8097 18.3612C58.117 17.0539 58.8301 15.39 58.8301 13.6073C58.8301 9.92295 55.8589 6.95173 52.1746 6.95173ZM57.2851 13.6073C57.2851 16.6973 55.0269 18.9554 52.1746 18.9554C49.2033 18.9554 46.9452 16.5785 46.9452 13.6073C46.9452 10.636 49.2033 8.37792 52.1746 8.37792C55.0269 8.37792 57.2851 10.636 57.2851 13.6073ZM39.9331 13.2507C40.8839 12.6565 41.4782 11.5868 41.4782 10.5172C41.4782 8.49676 39.9331 7.18943 37.5562 7.18943H32.4457V20.0251H37.9127C40.6462 20.0251 42.429 18.5989 42.429 16.2219C42.429 14.7957 41.4782 13.7261 39.9331 13.2507ZM37.5562 12.6565H33.8719V8.49676H37.5562C39.1012 8.49676 40.052 9.20986 40.052 10.5172C40.052 11.9434 39.1012 12.6565 37.5562 12.6565ZM33.8719 13.9638H37.9127C39.8143 13.9638 40.8839 14.9146 40.8839 16.3408C40.8839 17.767 39.6954 18.7177 37.7939 18.7177H33.8719V13.9638ZM25.5525 5.05015L22.9378 5.6444L22.4624 3.14858L25.5525 5.05015ZM21.2739 3.38627L22.7001 10.2795L18.4215 5.05015L21.2739 3.38627ZM13.9053 2.07894L11.4095 10.2795L2.25812 1.0093L13.9053 2.07894ZM6.89322 24.8979L1.54503 24.0659L10.3398 13.6073L6.89322 24.8979ZM14.9749 2.55433L22.3435 11.8245L10.221 17.8858L14.9749 2.55433Z" fill="#0F75BD"/>
</g>
<defs>
<clipPath id="clip0_502:4">
<rect width="128" height="40" fill="white"/>
</clipPath>
</defs>
</svg>
